<svg width="24" height="25" viewBox="0 0 24 25" fill="none" xmlns="http://www.w3.org/2000/svg">
<path d="M8.96973 22.5H14.9697C19.9697 22.5 21.9697 20.5 21.9697 15.5V9.5C21.9697 4.5 19.9697 2.5 14.9697 2.5H8.96973C3.96973 2.5 1.96973 4.5 1.96973 9.5V15.5C1.96973 20.5 3.96973 22.5 8.96973 22.5Z" stroke="#2C3131" stroke-width="1.5" stroke-linecap="round" stroke-linejoin="round"/>
<path d="M1.96973 13.2001L7.96973 13.1801C8.71973 13.1801 9.55973 13.7501 9.83973 14.4501L10.9797 17.3301C11.2397 17.9801 11.6497 17.9801 11.9097 17.3301L14.1997 11.5201C14.4197 10.9601 14.8297 10.9401 15.1097 11.4701L16.1497 13.4401C16.4597 14.0301 17.2597 14.5101 17.9197 14.5101H21.9797" stroke="#2C3131" stroke-width="1.5" stroke-linecap="round" stroke-linejoin="round"/>
</svg>
