<svg width="17" height="21" viewBox="0 0 17 21" fill="none" xmlns="http://www.w3.org/2000/svg">
<path d="M4.2832 17.5158L2.0332 19.7658C1.8332 19.9658 1.59987 20.0617 1.3332 20.0533C1.06654 20.045 0.833203 19.9408 0.633203 19.7408C0.44987 19.5408 0.354036 19.3075 0.345703 19.0408C0.33737 18.7742 0.433203 18.5408 0.633203 18.3408L2.8832 16.0908H1.6332C1.34987 16.0908 1.11237 15.995 0.920703 15.8033C0.729036 15.6117 0.633203 15.3742 0.633203 15.0908C0.633203 14.8075 0.729036 14.57 0.920703 14.3783C1.11237 14.1867 1.34987 14.0908 1.6332 14.0908H5.2832C5.56654 14.0908 5.80404 14.1867 5.9957 14.3783C6.18737 14.57 6.2832 14.8075 6.2832 15.0908V18.7408C6.2832 19.0242 6.18737 19.2617 5.9957 19.4533C5.80404 19.645 5.56654 19.7408 5.2832 19.7408C4.99987 19.7408 4.76237 19.645 4.5707 19.4533C4.37904 19.2617 4.2832 19.0242 4.2832 18.7408V17.5158ZM9.2832 20.0908C8.99987 20.0908 8.76237 19.995 8.5707 19.8033C8.37904 19.6117 8.2832 19.3742 8.2832 19.0908V15.0908C8.2832 14.2575 7.99154 13.5492 7.4082 12.9658C6.82487 12.3825 6.11654 12.0908 5.2832 12.0908H1.2832C0.99987 12.0908 0.76237 11.995 0.570703 11.8033C0.379036 11.6117 0.283203 11.3742 0.283203 11.0908V2.09082C0.283203 1.54082 0.479036 1.06999 0.870703 0.67832C1.26237 0.286654 1.7332 0.0908203 2.2832 0.0908203H10.2832L16.2832 6.09082V18.0908C16.2832 18.6408 16.0874 19.1117 15.6957 19.5033C15.304 19.895 14.8332 20.0908 14.2832 20.0908H9.2832ZM9.2832 7.09082H14.2832L9.2832 2.09082V7.09082Z" fill="white"/>
</svg>
