<svg width="20" height="21" viewBox="0 0 20 21" fill="none" xmlns="http://www.w3.org/2000/svg">
<path d="M17.1667 3.91667V5.75C17.1667 6.41667 16.7501 7.25 16.3334 7.66667L12.7501 10.8333C12.2501 11.25 11.9167 12.0833 11.9167 12.75V16.3333C11.9167 16.8333 11.5834 17.5 11.1667 17.75L10.0001 18.5C8.91673 19.1667 7.41673 18.4167 7.41673 17.0833V12.6667C7.41673 12.0833 7.0834 11.3333 6.75007 10.9167L6.3584 10.5083C6.10007 10.2333 6.05007 9.81667 6.2584 9.49167L10.5251 2.64167C10.6751 2.4 10.9417 2.25 11.2334 2.25H15.5001C16.4167 2.25 17.1667 3 17.1667 3.91667Z" fill="white"/>
<path d="M8.62516 3.525L5.66683 8.26667C5.3835 8.725 4.7335 8.79167 4.3585 8.4L3.5835 7.58333C3.16683 7.16667 2.8335 6.41667 2.8335 5.91667V4C2.8335 3 3.5835 2.25 4.50016 2.25H7.91683C8.56683 2.25 8.96683 2.96667 8.62516 3.525Z" fill="white"/>
</svg>
