<svg width="24" height="24" viewBox="0 0 24 24" fill="none" xmlns="http://www.w3.org/2000/svg">
<path d="M20.0402 6.82018L14.2802 2.79018C12.7102 1.69018 10.3002 1.75018 8.79023 2.92018L3.78023 6.83018C2.78023 7.61018 1.99023 9.21018 1.99023 10.4702V17.3702C1.99023 19.9202 4.06023 22.0002 6.61023 22.0002H17.3902C19.9402 22.0002 22.0102 19.9302 22.0102 17.3802V10.6002C22.0102 9.25018 21.1402 7.59018 20.0402 6.82018ZM16.8802 13.4002C16.8802 13.7902 16.5702 14.1002 16.1802 14.1002C15.7902 14.1002 15.4802 13.7902 15.4802 13.4002V13.2202L12.7602 15.9402C12.6102 16.0902 12.4102 16.1602 12.2002 16.1402C12.0002 16.1202 11.8102 16.0002 11.7002 15.8302L10.6802 14.3102L8.30023 16.6902C8.16023 16.8302 7.99023 16.8902 7.81023 16.8902C7.63023 16.8902 7.45023 16.8202 7.32023 16.6902C7.05023 16.4202 7.05023 15.9802 7.32023 15.7002L10.3002 12.7202C10.4502 12.5702 10.6502 12.5002 10.8602 12.5202C11.0702 12.5402 11.2602 12.6502 11.3702 12.8302L12.3902 14.3502L14.5002 12.2402H14.3202C13.9302 12.2402 13.6202 11.9302 13.6202 11.5402C13.6202 11.1502 13.9302 10.8402 14.3202 10.8402H16.1802C16.2702 10.8402 16.3602 10.8602 16.4502 10.8902C16.6202 10.9602 16.7602 11.1002 16.8302 11.2702C16.8702 11.3602 16.8802 11.4502 16.8802 11.5402V13.4002Z" fill="#0D5A68"/>
</svg>
