<svg width="24" height="25" viewBox="0 0 24 25" fill="none" xmlns="http://www.w3.org/2000/svg">
<path d="M17.53 8.27C17.46 8.26 17.39 8.26 17.32 8.27C15.77 8.22 14.54 6.95 14.54 5.39C14.54 3.8 15.83 2.5 17.43 2.5C19.02 2.5 20.32 3.79 20.32 5.39C20.31 6.95 19.08 8.22 17.53 8.27Z" fill="#0D5A68"/>
<path d="M20.7901 15.1999C19.6701 15.9499 18.1001 16.2299 16.6501 16.0399C17.0301 15.2199 17.2301 14.3099 17.2401 13.3499C17.2401 12.3499 17.0201 11.3999 16.6001 10.5699C18.0801 10.3699 19.6501 10.6499 20.7801 11.3999C22.3601 12.4399 22.3601 14.1499 20.7901 15.1999Z" fill="#0D5A68"/>
<path d="M6.43991 8.27C6.50991 8.26 6.57991 8.26 6.64991 8.27C8.19991 8.22 9.42991 6.95 9.42991 5.39C9.42991 3.79 8.13991 2.5 6.53991 2.5C4.94991 2.5 3.65991 3.79 3.65991 5.39C3.65991 6.95 4.88991 8.22 6.43991 8.27Z" fill="#0D5A68"/>
<path d="M6.55012 13.3501C6.55012 14.3201 6.76012 15.2401 7.14012 16.0701C5.73012 16.2201 4.26012 15.9201 3.18012 15.2101C1.60012 14.1601 1.60012 12.4501 3.18012 11.4001C4.25012 10.6801 5.76012 10.3901 7.18012 10.5501C6.77012 11.3901 6.55012 12.3401 6.55012 13.3501Z" fill="#0D5A68"/>
<path d="M12.12 16.37C12.04 16.36 11.95 16.36 11.86 16.37C10.02 16.31 8.55005 14.8 8.55005 12.94C8.56005 11.04 10.09 9.5 12 9.5C13.9 9.5 15.44 11.04 15.44 12.94C15.43 14.8 13.97 16.31 12.12 16.37Z" fill="#0D5A68"/>
<path d="M8.87005 18.4401C7.36005 19.4501 7.36005 21.1101 8.87005 22.1101C10.59 23.2601 13.41 23.2601 15.13 22.1101C16.64 21.1001 16.64 19.4401 15.13 18.4401C13.42 17.2901 10.6 17.2901 8.87005 18.4401Z" fill="#0D5A68"/>
</svg>
