<svg width="25" height="25" viewBox="0 0 25 25" fill="none" xmlns="http://www.w3.org/2000/svg">
<path d="M18.5 3.5H6.5C4.29 3.5 2.5 5.28 2.5 7.47V17.53C2.5 19.72 4.29 21.5 6.5 21.5H18.5C20.71 21.5 22.5 19.72 22.5 17.53V7.47C22.5 5.28 20.71 3.5 18.5 3.5ZM9 7.67C10.27 7.67 11.31 8.71 11.31 9.98C11.31 11.25 10.27 12.29 9 12.29C7.73 12.29 6.69 11.25 6.69 9.98C6.69 8.71 7.73 7.67 9 7.67ZM12.87 17.16C12.78 17.26 12.64 17.32 12.5 17.32H5.5C5.36 17.32 5.22 17.26 5.13 17.16C5.04 17.06 4.99 16.92 5 16.78C5.17 15.1 6.51 13.77 8.19 13.61C8.72 13.56 9.27 13.56 9.8 13.61C11.48 13.77 12.83 15.1 12.99 16.78C13.01 16.92 12.96 17.06 12.87 17.16ZM19.5 17.25H17.5C17.09 17.25 16.75 16.91 16.75 16.5C16.75 16.09 17.09 15.75 17.5 15.75H19.5C19.91 15.75 20.25 16.09 20.25 16.5C20.25 16.91 19.91 17.25 19.5 17.25ZM19.5 13.25H15.5C15.09 13.25 14.75 12.91 14.75 12.5C14.75 12.09 15.09 11.75 15.5 11.75H19.5C19.91 11.75 20.25 12.09 20.25 12.5C20.25 12.91 19.91 13.25 19.5 13.25ZM19.5 9.25H14.5C14.09 9.25 13.75 8.91 13.75 8.5C13.75 8.09 14.09 7.75 14.5 7.75H19.5C19.91 7.75 20.25 8.09 20.25 8.5C20.25 8.91 19.91 9.25 19.5 9.25Z" fill="#0D5A68"/>
</svg>
