<svg width="24" height="25" viewBox="0 0 24 25" fill="none" xmlns="http://www.w3.org/2000/svg">
<path d="M18 19.3597H17.24C16.44 19.3597 15.68 19.6697 15.12 20.2297L13.41 21.9197C12.63 22.6897 11.36 22.6897 10.58 21.9197L8.87 20.2297C8.31 19.6697 7.54 19.3597 6.75 19.3597H6C4.34 19.3597 3 18.0298 3 16.3898V5.47974C3 3.83974 4.34 2.50977 6 2.50977H18C19.66 2.50977 21 3.83974 21 5.47974V16.3898C21 18.0198 19.66 19.3597 18 19.3597Z" stroke="#2C3131" stroke-width="1.5" stroke-miterlimit="10" stroke-linecap="round" stroke-linejoin="round"/>
<path d="M11.9999 10.4998C13.2868 10.4998 14.33 9.45662 14.33 8.1698C14.33 6.88298 13.2868 5.83984 11.9999 5.83984C10.7131 5.83984 9.66992 6.88298 9.66992 8.1698C9.66992 9.45662 10.7131 10.4998 11.9999 10.4998Z" stroke="#2C3131" stroke-width="1.5" stroke-linecap="round" stroke-linejoin="round"/>
<path d="M16 16.1599C16 14.3599 14.21 12.8999 12 12.8999C9.79 12.8999 8 14.3599 8 16.1599" stroke="#2C3131" stroke-width="1.5" stroke-linecap="round" stroke-linejoin="round"/>
</svg>
