<svg width="24" height="25" viewBox="0 0 24 25" fill="none" xmlns="http://www.w3.org/2000/svg">
<path d="M11.0002 2.49023C6.03023 2.49023 1.99023 6.53023 1.99023 11.5002C1.99023 16.4702 6.03023 20.5102 11.0002 20.5102C15.9702 20.5102 20.0102 16.4702 20.0102 11.5002C20.0102 6.53023 15.9702 2.49023 11.0002 2.49023ZM11.0002 13.7502H8.00023C7.59023 13.7502 7.25023 13.4102 7.25023 13.0002C7.25023 12.5902 7.59023 12.2502 8.00023 12.2502H11.0002C11.4102 12.2502 11.7502 12.5902 11.7502 13.0002C11.7502 13.4102 11.4102 13.7502 11.0002 13.7502ZM14.0002 10.7502H8.00023C7.59023 10.7502 7.25023 10.4102 7.25023 10.0002C7.25023 9.59023 7.59023 9.25023 8.00023 9.25023H14.0002C14.4102 9.25023 14.7502 9.59023 14.7502 10.0002C14.7502 10.4102 14.4102 10.7502 14.0002 10.7502Z" fill="#0D5A68"/>
<path d="M21.9901 19.45C21.6601 18.84 20.9601 18.5 20.0201 18.5C19.3101 18.5 18.7001 18.79 18.3401 19.29C17.9801 19.79 17.9001 20.46 18.1201 21.13C18.5501 22.43 19.3001 22.72 19.7101 22.77C19.7701 22.78 19.8301 22.78 19.9001 22.78C20.3401 22.78 21.0201 22.59 21.6801 21.6C22.2101 20.83 22.3101 20.06 21.9901 19.45Z" fill="#0D5A68"/>
</svg>
