<svg width="320" height="25" viewBox="0 0 320 25" fill="none" xmlns="http://www.w3.org/2000/svg">
<path d="M6.59487 24.5141V5.87324H0V0.484863H19.2284V5.87324H12.6649V24.5141H6.59487Z" fill="#0D5A68"/>
<path d="M23.0366 24.5133V0.48409H32.8213C34.5663 0.438238 36.3007 0.800789 37.9133 1.54865C39.2608 2.18155 40.4078 3.25213 41.2062 4.62205C41.9939 6.03588 42.3946 7.67676 42.3592 9.34249C42.4035 11.0141 42.0021 12.6627 41.2062 14.078C40.3987 15.4246 39.2528 16.4731 37.9133 17.0911C36.2984 17.8289 34.565 18.1862 32.8213 18.1407H26.3789L29.1111 15.2532V24.5234L23.0366 24.5133ZM29.1111 16.0366L26.3789 12.8779H32.4534C33.7186 12.8779 34.6696 12.5681 35.3067 11.9488C35.9127 11.2609 36.2525 10.3337 36.2525 9.36762C36.2525 8.40153 35.9127 7.4742 35.3067 6.78635C34.6696 6.1536 33.7186 5.84231 32.4534 5.84231H26.3789L29.1111 2.71877V16.0366ZM36.2892 24.5133L30.9505 15.7503H37.4197L42.8033 24.5033L36.2892 24.5133Z" fill="#0D5A68"/>
<path d="M53.2529 19.2261H64.4687V24.5141H47.2637V0.484863H64.0694V5.77271H53.2529V19.2261ZM52.8043 9.79015H62.7729V14.8119H52.8043V9.79015Z" fill="#0D5A68"/>
<path d="M69.4043 24.5141V0.484863H74.4021L86.21 16.4842H83.8502V0.484863H89.7991V24.5141H84.8013L72.962 8.51974H75.3217V24.5141H69.4043Z" fill="#0D5A68"/>
<path d="M95.6538 24.5137V0.484443H105.806C107.954 0.435534 110.083 0.940683 112.029 1.96082C113.756 2.87322 115.218 4.31277 116.246 6.11386C117.289 8.02312 117.815 10.2294 117.762 12.4664C117.816 14.7193 117.29 16.9421 116.246 18.8692C115.221 20.6771 113.759 22.1224 112.029 23.0373C110.083 24.0574 107.954 24.5626 105.806 24.5137H95.6538ZM101.728 19.0901H105.497C106.617 19.1228 107.729 18.8524 108.736 18.3018C109.63 17.7886 110.371 16.9945 110.867 16.0168C111.368 14.9228 111.629 13.7109 111.629 12.4815C111.629 11.252 111.368 10.0401 110.867 8.9461C110.364 7.98307 109.624 7.20217 108.736 6.69634C107.728 6.1481 106.617 5.87773 105.497 5.90789H101.728V19.0901Z" fill="#0D5A68"/>
<path d="M122.517 24.5141V0.484863H128.587V24.5141H122.517Z" fill="#0D5A68"/>
<path d="M134.455 24.5141V0.484863H139.453L151.256 16.4842H148.897V0.484863H154.845V24.5141H149.848L138.013 8.51974H140.373V24.5141H134.455Z" fill="#0D5A68"/>
<path d="M171.396 24.996C169.786 25.0166 168.186 24.7069 166.676 24.0821C165.29 23.5093 164.018 22.6355 162.935 21.5109C161.868 20.3973 161.021 19.0459 160.449 17.5437C159.265 14.3114 159.265 10.6871 160.449 7.45485C161.024 5.95058 161.875 4.59883 162.948 3.48768C164.048 2.3617 165.334 1.48809 166.735 0.916462C170.054 -0.367885 173.673 -0.289599 176.946 1.13739C178.483 1.84534 179.841 2.96439 180.903 4.39653L177.04 8.31356C176.377 7.47014 175.568 6.78666 174.662 6.30484C173.77 5.86283 172.802 5.64183 171.827 5.65701C170.969 5.64346 170.116 5.80522 169.31 6.13418C168.583 6.43396 167.925 6.90886 167.381 7.52523C166.839 8.14965 166.416 8.89115 166.138 9.70461C165.832 10.604 165.68 11.5597 165.689 12.5219C165.681 13.4709 165.834 14.4132 166.138 15.299C166.413 16.1136 166.837 16.8556 167.381 17.4783C167.923 18.0952 168.576 18.5762 169.296 18.8895C170.083 19.2309 170.92 19.4014 171.764 19.3917C172.662 19.3908 173.554 19.221 174.402 18.8895C175.353 18.4976 176.236 17.9214 177.008 17.1872L180.413 21.9579C179.109 22.9741 177.663 23.7396 176.134 24.2227C174.595 24.7326 173 24.9929 171.396 24.996ZM175.016 21.0791V11.9845H180.4V21.9378L175.016 21.0791Z" fill="#0D5A68"/>
<path d="M202.37 24.5141H196.295V0.484863H202.37V24.5141ZM211.046 15.1435H201.908V9.51404H211.046V15.1435ZM210.598 0.484863H216.672V24.5141H210.598V0.484863Z" fill="#2CAFB3"/>
<path d="M233.338 24.9956C231.722 25.0105 230.117 24.6958 228.601 24.0667C227.21 23.4965 225.936 22.617 224.857 21.4812C223.777 20.3455 222.914 18.9768 222.32 17.4579C221.709 15.8839 221.403 14.1825 221.423 12.4663C221.404 10.7647 221.71 9.0783 222.32 7.51987C222.92 6.00714 223.785 4.64446 224.864 3.51273C225.943 2.381 227.213 1.50319 228.601 0.93121C231.674 -0.300963 235.034 -0.300963 238.107 0.93121C239.506 1.5124 240.787 2.40015 241.876 3.54252C242.937 4.65748 243.787 5.99983 244.375 7.48971C244.988 9.05793 245.294 10.7547 245.272 12.4663C245.287 14.1917 244.981 15.9017 244.375 17.4881C243.795 18.9888 242.944 20.3394 241.876 21.4554C240.778 22.5922 239.491 23.4775 238.089 24.0616C236.57 24.6948 234.96 25.0113 233.338 24.9956ZM233.338 19.3662C234.122 19.3673 234.897 19.1967 235.622 18.864C236.318 18.5517 236.946 18.0775 237.466 17.473C237.996 16.8493 238.412 16.1158 238.691 15.3136C239.283 13.4836 239.283 11.4791 238.691 9.6491C238.413 8.84476 237.997 8.10932 237.466 7.48468C236.946 6.88011 236.318 6.40597 235.622 6.09363C234.153 5.4575 232.524 5.4575 231.055 6.09363C230.357 6.40939 229.725 6.88295 229.198 7.48468C228.66 8.10404 228.244 8.84093 227.973 9.6491C227.397 11.4823 227.397 13.4804 227.973 15.3136C228.245 16.1196 228.662 16.8546 229.198 17.473C229.725 18.0747 230.357 18.5483 231.055 18.864C231.78 19.1967 232.555 19.3673 233.338 19.3662Z" fill="#2CAFB3"/>
<path d="M250.022 24.5141V0.484863H255.02L263.881 16.8257H261.243L269.942 0.484863H274.939L274.971 24.5141H269.39L269.327 9.99612H270.278L263.809 22.1438H261.117L254.464 9.99612H255.63V24.5141H250.022Z" fill="#2CAFB3"/>
<path d="M286.819 19.2261H298.035V24.5141H280.834V0.484863H297.64V5.77271H286.815L286.819 19.2261ZM286.371 9.79015H296.335V14.8119H286.371V9.79015Z" fill="#2CAFB3"/>
<path d="M310.494 24.9956C308.769 25.0035 307.051 24.7553 305.384 24.2574C303.99 23.875 302.659 23.2425 301.445 22.3843L303.437 17.3374C304.476 18.064 305.595 18.6364 306.766 19.0398C307.979 19.4783 309.246 19.7035 310.521 19.7076C311.208 19.7296 311.895 19.6486 312.562 19.4666C312.982 19.3604 313.365 19.1216 313.666 18.7787C313.899 18.488 314.026 18.1096 314.02 17.719C314.02 17.4607 313.956 17.2075 313.837 16.9864C313.718 16.7652 313.547 16.5845 313.343 16.4636C312.792 16.1088 312.198 15.8435 311.58 15.6752C310.853 15.461 310.067 15.2551 309.22 15.0576C308.344 14.8542 307.478 14.596 306.627 14.2842C305.783 13.9817 304.979 13.5544 304.236 13.0137C303.522 12.4888 302.929 11.7834 302.504 10.9547C302.035 9.97423 301.808 8.8721 301.845 7.76088C301.834 6.38061 302.197 5.02905 302.885 3.88407C303.675 2.63301 304.763 1.65649 306.026 1.06679C307.699 0.304652 309.496 -0.0563679 311.302 0.00713399C312.7 0.00461955 314.094 0.183274 315.456 0.539474C316.721 0.852837 317.932 1.3902 319.045 2.13134L317.206 7.15314C316.251 6.54482 315.232 6.07255 314.173 5.74714C313.222 5.45801 312.242 5.30771 311.257 5.30013C310.572 5.27592 309.888 5.38124 309.234 5.61154C308.807 5.75406 308.425 6.02705 308.13 6.39987C307.92 6.68286 307.802 7.03665 307.794 7.40423C307.79 7.66692 307.851 7.92568 307.969 8.15235C308.088 8.37902 308.26 8.56495 308.466 8.68984C309.011 9.04273 309.601 9.29856 310.216 9.44814C310.928 9.63897 311.721 9.83814 312.594 10.0457C313.46 10.2516 314.326 10.5127 315.182 10.8191C316.018 11.1178 316.817 11.5328 317.56 12.0544C318.28 12.5605 318.884 13.2485 319.323 14.0631C319.799 15.0229 320.032 16.1099 319.996 17.2068C320.002 18.5838 319.634 19.9305 318.942 21.0686C318.144 22.3299 317.042 23.3119 315.766 23.9009C314.096 24.6725 312.3 25.0453 310.494 24.9956Z" fill="#2CAFB3"/>
</svg>
