<svg width="156" height="136" viewBox="0 0 156 136" fill="none" xmlns="http://www.w3.org/2000/svg">
<path d="M43.3488 10.1323H31.6372V35.3734H43.3488V10.1323Z" fill="url(#paint0_linear_3364_271586)"/>
<path d="M129.297 66.4092C129.297 66.4092 112.971 88.7863 91.1668 68.115L65.4218 41.6615L65.252 41.49C65.252 41.49 78.53 26.917 98.3665 35.6716L98.7149 35.822L98.8819 35.8973C99.4352 36.15 99.9915 36.4237 100.557 36.7126L100.794 36.8389L100.867 36.878C101.543 37.23 102.223 37.6151 102.916 38.0242L103.034 38.1295C105.534 40.41 129.297 66.4092 129.297 66.4092Z" fill="url(#paint1_linear_3364_271586)"/>
<path d="M98.3518 35.6711C91.6177 32.7649 78.6851 29.9099 65.4071 41.661L65.2373 41.4895C65.2373 41.4895 78.5153 26.9165 98.3518 35.6711Z" fill="url(#paint2_linear_3364_271586)"/>
<path d="M103.169 38.3036C102.426 37.7838 101.651 37.3116 100.851 36.8896C101.527 37.2416 102.206 37.6267 102.9 38.0359L103.017 38.1412L103.169 38.3036Z" fill="url(#paint3_linear_3364_271586)"/>
<path d="M65.0624 66.6614C65.1743 66.7775 65.2371 66.9343 65.2371 67.0976C65.2371 67.261 65.1743 67.4178 65.0624 67.5339L59.1188 73.4786C59.0028 73.5905 58.8485 73.6507 58.6895 73.6462C58.5305 73.6417 58.3796 73.5728 58.2697 73.4545L52.329 67.1849C52.218 67.069 52.1558 66.9128 52.1558 66.7502C52.1558 66.5875 52.218 66.4314 52.329 66.3154L58.2726 60.3707C58.3881 60.259 58.5419 60.1989 58.7005 60.2034C58.859 60.2079 59.0095 60.2767 59.1188 60.3948L65.0624 66.6614Z" fill="url(#paint4_linear_3364_271586)"/>
<path d="M73.5948 58.1236C73.7067 58.2397 73.7697 58.3965 73.7697 58.5598C73.7697 58.7232 73.7067 58.88 73.5948 58.9961L67.6512 64.9408C67.594 64.9966 67.5266 65.0402 67.453 65.0692C67.3793 65.0981 67.3008 65.1119 67.2219 65.1096C67.1431 65.1074 67.0653 65.0892 66.9933 65.0561C66.9213 65.023 66.8564 64.9757 66.8022 64.9168L60.8585 58.6441C60.7472 58.5276 60.6851 58.371 60.6851 58.2079C60.6851 58.0447 60.7472 57.8881 60.8585 57.7716L66.8022 51.8299C66.9173 51.7178 67.071 51.6571 67.2295 51.6611C67.3881 51.665 67.5387 51.7333 67.6484 51.8509L73.5948 58.1236Z" fill="url(#paint5_linear_3364_271586)"/>
<path d="M73.1415 75.1911C73.1986 75.2473 73.2441 75.3148 73.2751 75.3895C73.3062 75.4642 73.3222 75.5446 73.3222 75.6258C73.3222 75.7071 73.3062 75.7875 73.2751 75.8622C73.2441 75.9369 73.1986 76.0044 73.1415 76.0606L67.2008 82.0053C67.1435 82.0611 67.0762 82.1047 67.0025 82.1336C66.9288 82.1626 66.8503 82.1764 66.7714 82.1741C66.6926 82.1719 66.6149 82.1537 66.5428 82.1206C66.4708 82.0875 66.4059 82.0402 66.3517 81.9812L60.4081 75.7086C60.2971 75.5926 60.2349 75.4365 60.2349 75.2739C60.2349 75.1112 60.2971 74.9551 60.4081 74.8391L66.3517 68.8944C66.4672 68.7827 66.621 68.7225 66.7796 68.727C66.9381 68.7316 67.0886 68.8004 67.1979 68.9184L73.1415 75.1911Z" fill="url(#paint6_linear_3364_271586)"/>
<path d="M81.6769 66.6531C81.7327 66.7104 81.777 66.7784 81.8072 66.8532C81.8373 66.9281 81.8529 67.0083 81.8529 67.0893C81.8529 67.1703 81.8373 67.2506 81.8072 67.3254C81.777 67.4003 81.7327 67.4683 81.6769 67.5255L75.7362 73.4673C75.6799 73.5249 75.6129 73.5702 75.5391 73.6004C75.4652 73.6305 75.3862 73.6449 75.3067 73.6426C75.2273 73.6404 75.1491 73.6215 75.077 73.5873C75.0049 73.553 74.9402 73.504 74.8871 73.4432L68.9436 67.1856C68.8324 67.0691 68.77 66.9125 68.77 66.7494C68.77 66.5862 68.8324 66.4296 68.9436 66.3131L74.8871 60.3714C75.0023 60.2593 75.1559 60.1986 75.3145 60.2026C75.473 60.2065 75.6236 60.2748 75.7333 60.3924L81.6769 66.6531Z" fill="url(#paint7_linear_3364_271586)"/>
<path d="M42.4106 23.9986C55.4456 10.9659 66.4193 0 66.4193 0L103.551 38.6348C103.504 38.5927 103.466 38.5566 103.431 38.5295C102.746 38.1204 102.064 37.7353 101.381 37.3833L101.305 37.3442L101.068 37.2178C100.573 36.9561 100.014 36.6823 99.3962 36.4025L99.2293 36.3273C79.1967 27.2478 65.7664 41.9923 65.7664 41.9923L65.9363 42.1668C65.62 42.4436 65.3057 42.7294 64.9934 43.0242C58.312 49.8895 21.1979 87.6098 20.8378 87.9768C20.8876 87.8986 22.2139 85.4347 0 66.4422C1.31755 65.0914 15.6203 50.774 30.62 35.7768L42.4106 23.9986Z" fill="url(#paint8_linear_3364_271586)"/>
<path d="M29.0669 96.2591C29.0669 96.2591 48.186 110.384 67.7766 92.0472L113.677 44.8833C113.677 44.8833 132.709 24.3475 155.312 43.6649L66.3478 135.059L29.0669 96.2591Z" fill="url(#paint9_linear_3364_271586)"/>
<path d="M0.00976562 66.442C0.00976562 66.442 19.287 45.7677 41.0911 66.442L67.003 93.067C67.003 93.067 51.6782 109.905 29.3472 96.5297C27.608 95.1218 0.00976562 66.442 0.00976562 66.442Z" fill="url(#paint10_linear_3364_271586)"/>
<mask id="mask0_3364_271586" style="mask-type:luminance" maskUnits="userSpaceOnUse" x="59" y="49" width="14" height="15">
<path d="M72.3851 56.306C72.4409 56.3633 72.4851 56.4313 72.5153 56.5061C72.5455 56.581 72.5611 56.6612 72.5611 56.7422C72.5611 56.8232 72.5455 56.9035 72.5153 56.9783C72.4851 57.0532 72.4409 57.1212 72.3851 57.1784L66.4444 63.1202C66.3881 63.1778 66.3211 63.2231 66.2472 63.2533C66.1734 63.2834 66.0944 63.2978 66.0149 63.2955C65.9355 63.2933 65.8573 63.2744 65.7852 63.2402C65.7131 63.2059 65.6484 63.1569 65.5953 63.0961L59.6518 56.8265C59.5398 56.7104 59.4771 56.5536 59.4771 56.3902C59.4771 56.2268 59.5398 56.0701 59.6518 55.954L65.5925 50.0123C65.7076 49.9002 65.8612 49.8395 66.0198 49.8434C66.1783 49.8474 66.3288 49.9157 66.4385 50.0333L72.3851 56.306Z" fill="white"/>
</mask>
<g mask="url(#mask0_3364_271586)">
<path d="M64.2968 47.7774C64.3526 47.8347 64.3968 47.9027 64.427 47.9775C64.4572 48.0524 64.4728 48.1326 64.4728 48.2137C64.4728 48.2947 64.4572 48.3749 64.427 48.4497C64.3968 48.5246 64.3526 48.5926 64.2968 48.6499L58.3532 54.5946C58.296 54.6504 58.2285 54.694 58.1548 54.723C58.0811 54.7519 58.0026 54.7657 57.9238 54.7635C57.8449 54.7612 57.7673 54.743 57.6953 54.7099C57.6233 54.6768 57.5582 54.6295 57.504 54.5706L51.5604 48.2979C51.4485 48.1818 51.3857 48.025 51.3857 47.8617C51.3857 47.6983 51.4485 47.5415 51.5604 47.4254L57.5012 41.4837C57.6163 41.3716 57.7699 41.3109 57.9285 41.3149C58.087 41.3188 58.2376 41.3871 58.3474 41.5047L64.2968 47.7774Z" fill="url(#paint11_linear_3364_271586)"/>
<path d="M63.8511 64.8447C63.9069 64.902 63.9512 64.97 63.9814 65.0448C64.0116 65.1197 64.0271 65.1999 64.0271 65.2809C64.0271 65.3619 64.0116 65.4422 63.9814 65.517C63.9512 65.5919 63.9069 65.6599 63.8511 65.7171L57.9104 71.6589C57.8532 71.7146 57.7858 71.7582 57.7121 71.7872C57.6384 71.8162 57.56 71.8299 57.4811 71.8277C57.4022 71.8255 57.3245 71.8073 57.2525 71.7742C57.1805 71.7411 57.1155 71.6937 57.0614 71.6348L51.1206 65.3621C51.0635 65.306 51.018 65.2385 50.987 65.1638C50.9559 65.0891 50.9399 65.0087 50.9399 64.9274C50.9399 64.8462 50.9559 64.7658 50.987 64.691C51.018 64.6163 51.0635 64.5489 51.1206 64.4927L57.0614 58.5479C57.1769 58.4363 57.3307 58.3761 57.4892 58.3806C57.6478 58.3851 57.7982 58.4539 57.9076 58.572L63.8511 64.8447Z" fill="url(#paint12_linear_3364_271586)"/>
</g>
<mask id="mask1_3364_271586" style="mask-type:luminance" maskUnits="userSpaceOnUse" x="67" y="58" width="14" height="14">
<path d="M80.466 64.8498C80.5236 64.906 80.5694 64.9737 80.6007 65.0487C80.632 65.1237 80.6482 65.2044 80.6482 65.286C80.6482 65.3677 80.632 65.4484 80.6007 65.5234C80.5694 65.5984 80.5236 65.6661 80.466 65.7223L74.5253 71.667C74.4088 71.7791 74.2539 71.8394 74.0944 71.8349C73.9349 71.8304 73.7836 71.7614 73.6732 71.643L67.7355 65.3793C67.6784 65.3231 67.6329 65.2557 67.6019 65.1809C67.5708 65.1062 67.5547 65.0258 67.5547 64.9446C67.5547 64.8633 67.5708 64.7829 67.6019 64.7082C67.6329 64.6335 67.6784 64.566 67.7355 64.5099L73.6791 58.5651C73.7353 58.5079 73.8022 58.4631 73.8758 58.4332C73.9494 58.4033 74.0281 58.3891 74.1071 58.3913C74.1862 58.3936 74.264 58.4123 74.3359 58.4463C74.4077 58.4803 74.4722 58.5289 74.5253 58.5892L80.466 64.8498Z" fill="white"/>
</mask>
<g mask="url(#mask1_3364_271586)">
<path d="M72.3876 56.3245C72.4433 56.3818 72.4876 56.4498 72.5178 56.5246C72.548 56.5995 72.5636 56.6797 72.5636 56.7607C72.5636 56.8418 72.548 56.922 72.5178 56.9968C72.4876 57.0717 72.4433 57.1397 72.3876 57.197L66.4469 63.1417C66.3309 63.2536 66.1766 63.3138 66.0175 63.3093C65.8585 63.3048 65.7076 63.2359 65.5978 63.1176L59.6542 56.842C59.5432 56.726 59.481 56.5699 59.481 56.4072C59.481 56.2446 59.5432 56.0884 59.6542 55.9725L65.5978 50.0278C65.654 49.9706 65.7209 49.9257 65.7945 49.8958C65.8681 49.866 65.9468 49.8517 66.0258 49.854C66.1049 49.8562 66.1829 49.8749 66.2547 49.9089C66.3266 49.9429 66.3909 49.9915 66.444 50.0518L72.3876 56.3245Z" fill="url(#paint13_linear_3364_271586)"/>
<path d="M71.9298 73.3888C71.9874 73.445 72.0333 73.5126 72.0647 73.5876C72.096 73.6626 72.1121 73.7434 72.1121 73.825C72.1121 73.9066 72.096 73.9873 72.0647 74.0623C72.0333 74.1373 71.9874 74.205 71.9298 74.2612L65.9891 80.206C65.9319 80.2617 65.8645 80.3053 65.7908 80.3343C65.7172 80.3633 65.6387 80.377 65.5598 80.3748C65.481 80.3726 65.4032 80.3544 65.3312 80.3213C65.2592 80.2882 65.1943 80.2408 65.1401 80.1819L59.1965 73.9092C59.0853 73.7928 59.0229 73.6361 59.0229 73.473C59.0229 73.3098 59.0853 73.1532 59.1965 73.0368L65.1401 67.095C65.2552 66.983 65.4088 66.9223 65.5674 66.9262C65.7259 66.9302 65.8766 66.9984 65.9863 67.1161L71.9298 73.3888Z" fill="url(#paint14_linear_3364_271586)"/>
</g>
<mask id="mask2_3364_271586" style="mask-type:luminance" maskUnits="userSpaceOnUse" x="50" y="58" width="15" height="14">
<path d="M63.8511 64.8418C63.9069 64.899 63.9512 64.967 63.9814 65.0419C64.0116 65.1167 64.0271 65.197 64.0271 65.278C64.0271 65.359 64.0116 65.4392 63.9814 65.5141C63.9512 65.5889 63.9069 65.6569 63.8511 65.7142L57.9104 71.659C57.8532 71.7147 57.7858 71.7583 57.7121 71.7873C57.6384 71.8163 57.56 71.83 57.4811 71.8278C57.4022 71.8256 57.3245 71.8074 57.2525 71.7743C57.1805 71.7412 57.1155 71.6938 57.0614 71.6349L51.1206 65.3622C51.0635 65.3061 51.018 65.2386 50.987 65.1639C50.9559 65.0891 50.9399 65.0087 50.9399 64.9275C50.9399 64.8462 50.9559 64.7658 50.987 64.6911C51.018 64.6164 51.0635 64.5489 51.1206 64.4928L57.0614 58.548C57.1176 58.4908 57.1845 58.446 57.2581 58.4161C57.3317 58.3862 57.4103 58.372 57.4894 58.3743C57.5685 58.3765 57.6463 58.3952 57.7181 58.4292C57.79 58.4632 57.8545 58.5118 57.9076 58.5721L63.8511 64.8418Z" fill="white"/>
</mask>
<g mask="url(#mask2_3364_271586)">
<path d="M55.7706 56.3157C55.8263 56.373 55.8706 56.441 55.9008 56.5158C55.931 56.5907 55.9466 56.6709 55.9466 56.7519C55.9466 56.833 55.931 56.9132 55.9008 56.988C55.8706 57.0629 55.8263 57.1309 55.7706 57.1882L49.827 63.1329C49.711 63.2448 49.5567 63.305 49.3977 63.3005C49.2386 63.296 49.0878 63.2271 48.9779 63.1088L43.0342 56.8332C42.9771 56.777 42.9316 56.7095 42.9006 56.6348C42.8695 56.5601 42.8535 56.4797 42.8535 56.3984C42.8535 56.3172 42.8695 56.2368 42.9006 56.1621C42.9316 56.0874 42.9771 56.0199 43.0342 55.9637L48.9749 50.019C49.0312 49.9618 49.0981 49.9169 49.1716 49.8871C49.2452 49.8572 49.324 49.843 49.4031 49.8452C49.4822 49.8475 49.56 49.8661 49.6318 49.9001C49.7037 49.9341 49.7681 49.9828 49.8211 50.043L55.7706 56.3157Z" fill="url(#paint15_linear_3364_271586)"/>
<path d="M55.3169 73.38C55.3727 73.4372 55.4169 73.5052 55.4471 73.5801C55.4773 73.6549 55.4927 73.7352 55.4927 73.8162C55.4927 73.8972 55.4773 73.9774 55.4471 74.0523C55.4169 74.1271 55.3727 74.1951 55.3169 74.2524L49.3644 80.1972C49.2484 80.309 49.0942 80.3693 48.9351 80.3648C48.7761 80.3603 48.6252 80.2914 48.5154 80.1731L42.5717 73.9004C42.4597 73.7844 42.397 73.6276 42.397 73.4642C42.397 73.3008 42.4597 73.144 42.5717 73.028L48.5124 67.0862C48.6275 66.9742 48.7812 66.9135 48.9397 66.9174C49.0982 66.9214 49.2489 66.9896 49.3586 67.1073L55.3169 73.38Z" fill="url(#paint16_linear_3364_271586)"/>
</g>
<defs>
<linearGradient id="paint0_linear_3364_271586" x1="31.6372" y1="22.7529" x2="43.3488" y2="22.7529" gradientUnits="userSpaceOnUse">
<stop stop-color="#36BFC4"/>
<stop offset="0.19" stop-color="#29AAAF"/>
<stop offset="0.52" stop-color="#158B91"/>
<stop offset="0.8" stop-color="#08787E"/>
<stop offset="1" stop-color="#047177"/>
</linearGradient>
<linearGradient id="paint1_linear_3364_271586" x1="83.6772" y1="26.9711" x2="115.143" y2="86.1635" gradientUnits="userSpaceOnUse">
<stop stop-color="#36BFC4"/>
<stop offset="0.19" stop-color="#29AAAF"/>
<stop offset="0.52" stop-color="#158B91"/>
<stop offset="0.8" stop-color="#08787E"/>
<stop offset="1" stop-color="#047177"/>
</linearGradient>
<linearGradient id="paint2_linear_3364_271586" x1="65.2373" y1="37.2656" x2="98.3518" y2="37.2656" gradientUnits="userSpaceOnUse">
<stop stop-color="#DF782A"/>
<stop offset="0.09" stop-color="#E28128"/>
<stop offset="0.47" stop-color="#ECA020"/>
<stop offset="0.78" stop-color="#F2B31C"/>
<stop offset="1" stop-color="#F4BA1A"/>
</linearGradient>
<linearGradient id="paint3_linear_3364_271586" x1="100.851" y1="37.5846" x2="103.169" y2="37.5846" gradientUnits="userSpaceOnUse">
<stop stop-color="#DF782A"/>
<stop offset="0.09" stop-color="#E28128"/>
<stop offset="0.47" stop-color="#ECA020"/>
<stop offset="0.78" stop-color="#F2B31C"/>
<stop offset="1" stop-color="#F4BA1A"/>
</linearGradient>
<linearGradient id="paint4_linear_3364_271586" x1="52.1563" y1="66.9201" x2="65.238" y2="66.9201" gradientUnits="userSpaceOnUse">
<stop stop-color="#36BFC4"/>
<stop offset="0.19" stop-color="#29AAAF"/>
<stop offset="0.52" stop-color="#158B91"/>
<stop offset="0.8" stop-color="#08787E"/>
<stop offset="1" stop-color="#047177"/>
</linearGradient>
<linearGradient id="paint5_linear_3364_271586" x1="60.6888" y1="58.3853" x2="73.7706" y2="58.3853" gradientUnits="userSpaceOnUse">
<stop stop-color="#36BFC4"/>
<stop offset="0.19" stop-color="#29AAAF"/>
<stop offset="0.52" stop-color="#158B91"/>
<stop offset="0.8" stop-color="#08787E"/>
<stop offset="1" stop-color="#047177"/>
</linearGradient>
<linearGradient id="paint6_linear_3364_271586" x1="60.2354" y1="75.4498" x2="73.3171" y2="75.4498" gradientUnits="userSpaceOnUse">
<stop stop-color="#36BFC4"/>
<stop offset="0.19" stop-color="#29AAAF"/>
<stop offset="0.52" stop-color="#158B91"/>
<stop offset="0.8" stop-color="#08787E"/>
<stop offset="1" stop-color="#047177"/>
</linearGradient>
<linearGradient id="paint7_linear_3364_271586" x1="68.7708" y1="66.9118" x2="81.8527" y2="66.9118" gradientUnits="userSpaceOnUse">
<stop stop-color="#36BFC4"/>
<stop offset="0.19" stop-color="#29AAAF"/>
<stop offset="0.52" stop-color="#158B91"/>
<stop offset="0.8" stop-color="#08787E"/>
<stop offset="1" stop-color="#047177"/>
</linearGradient>
<linearGradient id="paint8_linear_3364_271586" x1="0.00878368" y1="43.9869" x2="103.551" y2="43.9869" gradientUnits="userSpaceOnUse">
<stop stop-color="#36BFC4"/>
<stop offset="0.19" stop-color="#29AAAF"/>
<stop offset="0.52" stop-color="#158B91"/>
<stop offset="0.8" stop-color="#08787E"/>
<stop offset="1" stop-color="#047177"/>
</linearGradient>
<linearGradient id="paint9_linear_3364_271586" x1="29.0669" y1="85.218" x2="155.312" y2="85.218" gradientUnits="userSpaceOnUse">
<stop stop-color="#0D5A68"/>
<stop offset="0.34" stop-color="#0D5766"/>
<stop offset="0.55" stop-color="#0D4F5E"/>
<stop offset="0.71" stop-color="#0D4152"/>
<stop offset="0.86" stop-color="#0D2D40"/>
<stop offset="1" stop-color="#0D1229"/>
</linearGradient>
<linearGradient id="paint10_linear_3364_271586" x1="19.167" y1="51.2702" x2="51.6232" y2="112.327" gradientUnits="userSpaceOnUse">
<stop stop-color="#0D5A68"/>
<stop offset="0.28" stop-color="#0D5766"/>
<stop offset="0.45" stop-color="#0D4F5E"/>
<stop offset="0.59" stop-color="#0D4152"/>
<stop offset="0.71" stop-color="#0D2D40"/>
<stop offset="0.82" stop-color="#0D1229"/>
</linearGradient>
<linearGradient id="paint11_linear_3364_271586" x1="51.3994" y1="48.0392" x2="64.4813" y2="48.0392" gradientUnits="userSpaceOnUse">
<stop offset="0.01" stop-color="#232162"/>
<stop offset="0.02" stop-color="#272A68"/>
<stop offset="0.08" stop-color="#385486"/>
<stop offset="0.15" stop-color="#4679A0"/>
<stop offset="0.22" stop-color="#5296B5"/>
<stop offset="0.29" stop-color="#5BADC5"/>
<stop offset="0.37" stop-color="#62BDD0"/>
<stop offset="0.45" stop-color="#66C7D7"/>
<stop offset="0.57" stop-color="#67CAD9"/>
<stop offset="0.63" stop-color="#61C0D5"/>
<stop offset="0.74" stop-color="#50A6C9"/>
<stop offset="0.88" stop-color="#347CB7"/>
<stop offset="1" stop-color="#1952A4"/>
</linearGradient>
<linearGradient id="paint12_linear_3364_271586" x1="50.945" y1="65.1034" x2="64.0269" y2="65.1034" gradientUnits="userSpaceOnUse">
<stop offset="0.01" stop-color="#232162"/>
<stop offset="0.02" stop-color="#272A68"/>
<stop offset="0.08" stop-color="#385486"/>
<stop offset="0.15" stop-color="#4679A0"/>
<stop offset="0.22" stop-color="#5296B5"/>
<stop offset="0.29" stop-color="#5BADC5"/>
<stop offset="0.37" stop-color="#62BDD0"/>
<stop offset="0.45" stop-color="#66C7D7"/>
<stop offset="0.57" stop-color="#67CAD9"/>
<stop offset="0.63" stop-color="#61C0D5"/>
<stop offset="0.74" stop-color="#50A6C9"/>
<stop offset="0.88" stop-color="#347CB7"/>
<stop offset="1" stop-color="#1952A4"/>
</linearGradient>
<linearGradient id="paint13_linear_3364_271586" x1="59.4786" y1="56.5832" x2="72.5633" y2="56.5832" gradientUnits="userSpaceOnUse">
<stop offset="0.01" stop-color="#232162"/>
<stop offset="0.02" stop-color="#272A68"/>
<stop offset="0.08" stop-color="#385486"/>
<stop offset="0.15" stop-color="#4679A0"/>
<stop offset="0.22" stop-color="#5296B5"/>
<stop offset="0.29" stop-color="#5BADC5"/>
<stop offset="0.37" stop-color="#62BDD0"/>
<stop offset="0.45" stop-color="#66C7D7"/>
<stop offset="0.57" stop-color="#67CAD9"/>
<stop offset="0.63" stop-color="#61C0D5"/>
<stop offset="0.74" stop-color="#50A6C9"/>
<stop offset="0.88" stop-color="#347CB7"/>
<stop offset="1" stop-color="#1952A4"/>
</linearGradient>
<linearGradient id="paint14_linear_3364_271586" x1="59.0267" y1="73.6505" x2="72.1085" y2="73.6505" gradientUnits="userSpaceOnUse">
<stop offset="0.01" stop-color="#232162"/>
<stop offset="0.02" stop-color="#272A68"/>
<stop offset="0.08" stop-color="#385486"/>
<stop offset="0.15" stop-color="#4679A0"/>
<stop offset="0.22" stop-color="#5296B5"/>
<stop offset="0.29" stop-color="#5BADC5"/>
<stop offset="0.37" stop-color="#62BDD0"/>
<stop offset="0.45" stop-color="#66C7D7"/>
<stop offset="0.57" stop-color="#67CAD9"/>
<stop offset="0.63" stop-color="#61C0D5"/>
<stop offset="0.74" stop-color="#50A6C9"/>
<stop offset="0.88" stop-color="#347CB7"/>
<stop offset="1" stop-color="#1952A4"/>
</linearGradient>
<linearGradient id="paint15_linear_3364_271586" x1="42.8644" y1="56.5744" x2="55.9492" y2="56.5744" gradientUnits="userSpaceOnUse">
<stop offset="0.01" stop-color="#232162"/>
<stop offset="0.02" stop-color="#272A68"/>
<stop offset="0.08" stop-color="#385486"/>
<stop offset="0.15" stop-color="#4679A0"/>
<stop offset="0.22" stop-color="#5296B5"/>
<stop offset="0.29" stop-color="#5BADC5"/>
<stop offset="0.37" stop-color="#62BDD0"/>
<stop offset="0.45" stop-color="#66C7D7"/>
<stop offset="0.57" stop-color="#67CAD9"/>
<stop offset="0.63" stop-color="#61C0D5"/>
<stop offset="0.74" stop-color="#50A6C9"/>
<stop offset="0.88" stop-color="#347CB7"/>
<stop offset="1" stop-color="#1952A4"/>
</linearGradient>
<linearGradient id="paint16_linear_3364_271586" x1="42.4107" y1="73.6417" x2="55.4925" y2="73.6417" gradientUnits="userSpaceOnUse">
<stop offset="0.01" stop-color="#232162"/>
<stop offset="0.02" stop-color="#272A68"/>
<stop offset="0.08" stop-color="#385486"/>
<stop offset="0.15" stop-color="#4679A0"/>
<stop offset="0.22" stop-color="#5296B5"/>
<stop offset="0.29" stop-color="#5BADC5"/>
<stop offset="0.37" stop-color="#62BDD0"/>
<stop offset="0.45" stop-color="#66C7D7"/>
<stop offset="0.57" stop-color="#67CAD9"/>
<stop offset="0.63" stop-color="#61C0D5"/>
<stop offset="0.74" stop-color="#50A6C9"/>
<stop offset="0.88" stop-color="#347CB7"/>
<stop offset="1" stop-color="#1952A4"/>
</linearGradient>
</defs>
</svg>
