<svg width="24" height="25" viewBox="0 0 24 25" fill="none" xmlns="http://www.w3.org/2000/svg">
<path d="M4.91992 20.7799L6.68993 22.1499C6.91993 22.3799 7.42992 22.4898 7.77992 22.4898H9.94992C10.6399 22.4898 11.3799 21.9799 11.5499 21.2899L12.9199 17.1198C13.2099 16.3198 12.6899 15.6299 11.8299 15.6299H9.53992C9.19992 15.6299 8.90992 15.3398 8.96992 14.9398L9.25993 13.1098C9.36993 12.5998 9.02992 12.0198 8.51992 11.8498C8.05992 11.6798 7.48993 11.9099 7.25993 12.2499L4.91992 15.7398" stroke="#2C3131" stroke-miterlimit="10"/>
<path d="M2 20.7799V15.1799C2 14.3799 2.34 14.0898 3.14 14.0898H3.71C4.51 14.0898 4.85 14.3799 4.85 15.1799V20.7799C4.85 21.5799 4.51 21.8699 3.71 21.8699H3.14C2.34 21.8699 2 21.5899 2 20.7799Z" stroke="#2C3131" stroke-linecap="round" stroke-linejoin="round"/>
<path d="M19.0798 4.21973L17.3098 2.84973C17.0798 2.61973 16.5698 2.50977 16.2198 2.50977H14.0498C13.3598 2.50977 12.6198 3.01972 12.4498 3.70972L11.0798 7.87976C10.7898 8.67976 11.3098 9.36975 12.1698 9.36975H14.4598C14.7998 9.36975 15.0898 9.65981 15.0298 10.0598L14.7398 11.8898C14.6298 12.3998 14.9698 12.9798 15.4798 13.1498C15.9398 13.3198 16.5098 13.0898 16.7398 12.7498L19.0798 9.25977" stroke="#2C3131" stroke-miterlimit="10"/>
<path d="M21.9999 4.21985V9.81982C21.9999 10.6198 21.6599 10.9099 20.8599 10.9099H20.2899C19.4899 10.9099 19.1499 10.6198 19.1499 9.81982V4.21985C19.1499 3.41985 19.4899 3.12988 20.2899 3.12988H20.8599C21.6599 3.12988 21.9999 3.40985 21.9999 4.21985Z" stroke="#2C3131" stroke-linecap="round" stroke-linejoin="round"/>
</svg>
